<svg width="120" height="120" viewBox="0 0 120 120" fill="none" xmlns="http://www.w3.org/2000/svg">
<path d="M62.2675 60.6313C62.2675 60.8964 62.4556 61.0047 62.685 60.8722L71.5796 55.7416C71.7009 55.6622 71.8018 55.5554 71.8743 55.43C71.9468 55.3045 71.9889 55.1638 71.9971 55.019V44.742C71.9971 44.4769 71.809 44.3686 71.5796 44.5012L62.685 49.6318C62.5637 49.7112 62.4627 49.8179 62.3902 49.9435C62.3178 50.0689 62.2756 50.2097 62.2675 50.3544V60.6313Z" fill="#E6C620"/>
<path d="M49.8456 53.4598C49.8456 53.7249 50.0337 53.8332 50.2632 53.7007L59.1592 48.57C59.2801 48.4907 59.3809 48.3838 59.4532 48.2584C59.5254 48.1328 59.5673 47.9921 59.5753 47.8475V37.5705C59.5753 37.3054 59.3886 37.1971 59.1592 37.3297L50.2632 42.4603C50.1419 42.5397 50.0409 42.6464 49.9683 42.7719C49.8958 42.8974 49.8537 43.0382 49.8456 43.1829V53.4598Z" fill="#6941A0"/>
<path d="M71.5794 68.0437C71.8089 68.1763 71.997 68.0679 71.997 67.8029V59.085C71.997 58.82 71.8089 58.7117 71.5794 58.8442L64.026 63.2038C63.7965 63.3364 63.7965 63.553 64.026 63.6855L71.5794 68.0437Z" fill="#CA1B4D"/>
<path d="M75.1069 44.5012C74.8775 44.3686 74.6893 44.4769 74.6893 44.742V53.4598C74.6893 53.7249 74.8775 53.8332 75.1069 53.7007L82.6604 49.3425C82.8898 49.21 82.8898 48.9933 82.6604 48.8608L75.1069 44.5012Z" fill="#CA1B4D"/>
<path d="M62.685 37.3297C62.4556 37.1971 62.2675 37.3054 62.2675 37.5705V46.2883C62.2675 46.5534 62.4556 46.6617 62.685 46.5292L70.2385 42.171C70.4679 42.0385 70.4679 41.8218 70.2385 41.6893L62.685 37.3297Z" fill="#E6E6E6"/>
<path d="M50.2632 30.1582C50.0337 30.0257 49.8456 30.134 49.8456 30.3991V39.1169C49.8456 39.382 50.0337 39.4903 50.2632 39.3577L57.8166 34.9995C58.0461 34.867 58.0461 34.6504 57.8166 34.5178L50.2632 30.1582Z" fill="#CA1B4D"/>
<path d="M59.1592 60.8722C59.3886 61.0047 59.5753 60.8964 59.5753 60.6314V51.9135C59.5753 51.6485 59.3886 51.5401 59.1592 51.6727L51.6057 56.0323C51.3763 56.1648 51.3763 56.3815 51.6057 56.514L59.1592 60.8722Z" fill="#2B2B2B"/>
<path d="M46.7373 53.7007C46.9667 53.8332 47.1549 53.7249 47.1549 53.4598V44.742C47.1549 44.4769 46.9667 44.3686 46.7373 44.5012L39.1838 48.8608C38.9544 48.9933 38.9544 49.21 39.1838 49.3425L46.7373 53.7007Z" fill="#CA1B4D"/>
<path d="M59.5724 74.1421V66.2566C59.5724 65.9915 59.3857 65.8832 59.1563 66.0157L52.79 69.6912L51.61 70.3739C51.3791 70.5064 51.3805 70.7231 51.61 70.8556L55.3853 73.0347C56.5885 73.7301 57.9125 74.1914 59.2874 74.3943C59.3843 74.4129 59.5724 74.41 59.5724 74.1421Z" fill="#CA1B4D"/>
<path d="M62.2675 24.0599C62.2675 24.2879 62.2675 31.9454 62.2675 31.9454C62.2675 32.2104 62.4556 32.3188 62.685 32.1862L69.0527 28.5036L70.2342 27.8223C70.4637 27.6898 70.4637 27.4732 70.2342 27.3406L66.4589 25.1601C65.2549 24.465 63.9305 24.0038 62.5553 23.8005C62.4584 23.7891 62.2675 23.7919 62.2675 24.0599Z" fill="#CA1B4D"/>
<path d="M81.9348 35.4143C82.1058 35.3174 82.1003 35.2005 82.0618 35.115C81.2791 34.1121 80.3305 33.2507 79.257 32.5682C79.2185 32.544 79.1801 32.5197 79.1402 32.4969C79.0062 32.4143 78.8722 32.3316 78.734 32.2547L76.6247 31.0376L73.7585 29.3829C73.6294 29.3175 73.4866 29.2834 73.3418 29.2834C73.1969 29.2834 73.0541 29.3175 72.925 29.3829L64.029 34.5136C63.7995 34.6461 63.7995 34.8627 64.029 34.9953L68.477 37.5606L72.925 40.1259C73.0541 40.1913 73.1969 40.2254 73.3418 40.2254C73.4866 40.2254 73.6294 40.1913 73.7585 40.1259L76.626 38.4798L81.9292 35.4186L81.9348 35.4143Z" fill="#E6C620"/>
<path d="M57.8123 63.2038L48.9178 58.0732C48.7883 58.0078 48.6452 57.9737 48.5002 57.9737C48.3552 57.9737 48.2121 58.0078 48.0827 58.0732L45.2622 59.7021L39.9178 62.7877H39.9078C39.7211 62.8945 39.7454 63.0242 39.7938 63.1098C39.8423 63.1953 39.9178 63.2708 39.9834 63.3492C40.323 63.7549 40.6913 64.1359 41.085 64.4893C41.2076 64.5991 41.333 64.7074 41.4613 64.8114L41.5069 64.8499C41.6166 64.9397 41.7292 65.0266 41.8432 65.1121L41.9515 65.1934C42.0442 65.2618 42.1382 65.3259 42.2366 65.3915C42.2979 65.4328 42.3577 65.4755 42.4204 65.5155C42.4831 65.5554 42.5629 65.6095 42.6399 65.658C42.7454 65.7235 42.8508 65.7905 42.9591 65.8518L45.2594 67.1801L48.0798 68.809C48.2092 68.8745 48.3523 68.9085 48.4974 68.9085C48.6423 68.9085 48.7854 68.8745 48.915 68.809L57.8095 63.6784C58.0418 63.553 58.0418 63.3364 57.8123 63.2038Z" fill="#6941A0"/>
<path d="M83.2817 37.7458L76.4522 41.6893C76.2228 41.8218 76.2228 42.0385 76.4522 42.171L82.8214 45.848L84.0014 46.5292C84.2309 46.6617 84.419 46.5534 84.419 46.2883V41.9287C84.4203 40.5382 84.1582 39.16 83.6465 37.867C83.6378 37.8293 83.6196 37.7946 83.5937 37.7661C83.5676 37.7376 83.5347 37.7162 83.498 37.7041C83.4614 37.6918 83.4224 37.6892 83.3844 37.6966C83.3465 37.7039 83.3112 37.7209 83.2817 37.7458Z" fill="#CA1B4D"/>
<path d="M38.5625 37.7459L45.3919 41.6893C45.6214 41.8219 45.6214 42.0385 45.3919 42.171L39.0228 45.848L37.8428 46.5292C37.6119 46.6618 37.4252 46.5535 37.4252 46.2884V41.9288C37.4229 40.5383 37.6841 39.1602 38.1948 37.867C38.2036 37.8291 38.222 37.7942 38.2482 37.7654C38.2744 37.7367 38.3077 37.7152 38.3446 37.7031C38.3815 37.691 38.421 37.6884 38.4592 37.696C38.4972 37.7035 38.5328 37.7206 38.5625 37.7459Z" fill="#CA1B4D"/>
<path d="M83.2817 60.4561L76.4522 56.514C76.2228 56.3815 76.2228 56.1648 76.4522 56.0323L82.8214 52.3553L84.0014 51.6727C84.2309 51.5401 84.419 51.6485 84.419 51.9135V56.2732C84.4201 57.6641 84.158 59.0428 83.6465 60.3363C83.6377 60.3738 83.6193 60.4085 83.5932 60.4368C83.5672 60.4652 83.5342 60.4863 83.4976 60.4984C83.461 60.5104 83.4219 60.5128 83.3842 60.5054C83.3463 60.498 83.3111 60.481 83.2817 60.4561Z" fill="#CA1B4D"/>
<path d="M38.5625 60.4561L45.3919 56.514C45.6214 56.3815 45.6214 56.1648 45.3919 56.0323L39.0228 52.3553L37.8428 51.6727C37.6119 51.5401 37.4252 51.6485 37.4252 51.9135V56.2732C37.423 57.664 37.6843 59.0426 38.1948 60.3363C38.2038 60.3741 38.2223 60.4089 38.2486 60.4374C38.2749 60.466 38.3081 60.4873 38.345 60.4992C38.3819 60.5114 38.4212 60.5136 38.4594 60.5061C38.4975 60.4985 38.533 60.4813 38.5625 60.4561Z" fill="#CA1B4D"/>
<path d="M39.905 35.4143L46.7344 39.3577C46.9639 39.4903 47.152 39.382 47.152 39.1169V30.3991C47.152 30.134 46.9639 30.0257 46.7344 30.1582L42.9591 32.3387C41.753 33.0327 40.6891 33.9485 39.8237 35.038C39.7961 35.0648 39.7756 35.0982 39.7645 35.1351C39.7532 35.172 39.7516 35.211 39.7597 35.2487C39.7679 35.2864 39.7855 35.3214 39.8109 35.3503C39.8363 35.3794 39.8686 35.4013 39.905 35.4143Z" fill="#CA1B4D"/>
<path d="M62.2675 74.1421C62.2675 73.914 62.2675 66.2566 62.2675 66.2566C62.2675 65.9915 62.4556 65.8832 62.685 66.0157L69.0527 69.6912L70.2342 70.3739C70.4637 70.5064 70.4637 70.7231 70.2342 70.8556L66.4589 73.0347C65.2549 73.7298 63.9305 74.191 62.5553 74.3943C62.4584 74.4129 62.2675 74.41 62.2675 74.1421Z" fill="#CA1B4D"/>
<path d="M59.5724 24.0599V31.9454C59.5724 32.2104 59.3857 32.3188 59.1563 32.1862L52.79 28.5036L51.61 27.8223C51.3791 27.6898 51.3805 27.4732 51.61 27.3406L55.3853 25.1601C56.5885 24.4649 57.9125 24.0036 59.2874 23.8005C59.3843 23.7891 59.5724 23.7919 59.5724 24.0599Z" fill="#CA1B4D"/>
<path d="M81.9349 62.7877L75.1069 58.8442C74.876 58.7117 74.6893 58.82 74.6893 59.085V67.8029C74.6893 68.0679 74.8775 68.1763 75.1069 68.0437L78.8822 65.8632C80.0883 65.1694 81.1522 64.2536 82.0176 63.1639C82.0452 63.1371 82.0656 63.1036 82.0767 63.0666C82.0877 63.0297 82.0893 62.9905 82.081 62.9528C82.0728 62.9151 82.0549 62.8802 82.0294 62.8514C82.0038 62.8224 81.9713 62.8005 81.9349 62.7877Z" fill="#CA1B4D"/>
<path d="M24.8978 85.6247V85.9667C24.8978 85.9667 24.6413 85.9952 24.4275 86.0522C24.228 86.1093 24.1425 86.1663 24.0998 86.209C23.9857 86.3373 24 86.8361 24 87.2922V92.3373C24 93.3064 23.7435 94.1615 23.2019 94.8884C22.6603 95.6152 21.962 95.9715 21.1211 95.9715C20.4228 95.9715 20.38 95.5297 20.38 95.3587C20.38 95.1876 20.4513 94.9311 20.7933 94.8314C21.0784 94.7458 21.4347 94.9026 21.5629 95.0309C21.734 95.2019 21.8765 95.2874 21.9762 95.2874C22.0902 95.2874 22.19 95.2304 22.304 95.1306C22.418 95.0166 22.5321 94.8599 22.6318 94.6603C22.7458 94.4466 22.8598 94.1615 22.9311 93.7767C23.0024 93.3919 23.0309 92.9644 23.0309 92.4656V87.2779C23.0309 86.7933 23.0451 86.3658 22.9454 86.2375C22.9169 86.1805 22.8171 86.1235 22.6176 86.0665C22.418 86.0095 22.133 85.9952 22.133 85.9952V85.6532H24.8978V85.6247Z" fill="#2B2B2B"/>
<path d="M29.2874 85.7245L31.5819 91.7815C31.7245 92.152 31.8385 92.5083 31.924 92.7078C31.9667 92.8219 32.095 92.9216 32.2803 92.9929C32.4798 93.0641 32.7078 93.1069 32.7078 93.1069L32.7363 93.3492H30.114L30.1283 93.1069C30.1283 93.1069 30.342 93.0927 30.4703 93.0499C30.6128 93.0071 30.6841 92.9501 30.7126 92.8931C30.8694 92.6366 30.5701 91.81 30.5701 91.81L30.0998 90.4846H27.6199L27.1069 91.7815C26.9786 92.1663 26.9074 92.5226 26.9074 92.6793C26.9074 92.7934 26.9359 92.8646 27.0071 92.9074C27.0784 92.9644 27.1924 93.0071 27.3492 93.0356C27.5059 93.0641 27.6912 93.0926 27.6912 93.0926L27.7197 93.3349H25.2969V93.0926C25.2969 93.0926 25.5107 93.0784 25.6532 93.0356C25.7957 92.9929 25.8955 92.9359 25.9525 92.8789C26.1093 92.6651 26.2945 92.209 26.4941 91.696L28.5321 86.5083C28.5463 86.4656 28.8456 85.7957 28.8741 85.7387C28.9596 85.582 29.1021 85.5962 29.1449 85.6105C29.2019 85.6247 29.2589 85.6675 29.2874 85.7245ZM29.8432 89.8005L28.8884 87.2067L27.8907 89.8005H29.8432Z" fill="#2B2B2B"/>
<path d="M42.3705 85.7245L44.6651 91.7815C44.8076 92.152 44.9216 92.5226 45.0071 92.7221C45.0499 92.8361 45.1781 92.9359 45.3634 93.0071C45.5629 93.0784 45.791 93.1212 45.791 93.1212L45.8195 93.3634H43.1971L43.2114 93.1212C43.2114 93.1212 43.4252 93.1069 43.5534 93.0641C43.696 93.0214 43.7672 92.9644 43.7957 92.9074C43.9525 92.6508 43.6532 91.8242 43.6532 91.8242L43.1829 90.4988H40.7173L40.2043 91.7957C40.076 92.1805 40.0047 92.5511 40.0047 92.6936C40.0047 92.8076 40.0332 92.8789 40.1045 92.9216C40.1758 92.9786 40.2898 93.0214 40.4465 93.0499C40.6033 93.0784 40.7886 93.1069 40.7886 93.1069L40.8171 93.3492H38.4085V93.1069C38.4085 93.1069 38.6223 93.0927 38.7648 93.0499C38.9074 93.0071 39.0071 92.9501 39.0641 92.8931C39.2209 92.6793 39.4062 92.2233 39.6057 91.696L41.6152 86.5083C41.6294 86.4656 41.9287 85.7957 41.9572 85.7387C42.0427 85.582 42.1853 85.5962 42.228 85.6105C42.285 85.6247 42.342 85.6675 42.3705 85.7245ZM42.9264 89.8005L41.9715 87.2067L40.9739 89.8005H42.9264Z" fill="#2B2B2B"/>
<path d="M73.6675 85.7245L75.962 91.7815C76.1045 92.152 76.2613 92.5083 76.3326 92.7078C76.3753 92.8219 76.4608 92.9216 76.6461 92.9929C76.8456 93.0641 77.0736 93.1069 77.0736 93.1069L77.1021 93.3492H74.4798L74.4941 93.1069C74.4941 93.1069 74.7078 93.0927 74.8361 93.0499C74.9786 93.0071 75.0356 92.9501 75.0784 92.8931C75.2779 92.6793 74.9359 91.81 74.9359 91.81L74.4656 90.4846H72L71.4869 91.7815C71.3587 92.1663 71.2874 92.5226 71.2874 92.6793C71.2874 92.7934 71.3159 92.8646 71.3872 92.9074C71.4584 92.9644 71.5725 93.0071 71.7292 93.0356C71.886 93.0641 72.0713 93.0926 72.0713 93.0926L72.0998 93.3349H69.6912V93.0926C69.6912 93.0926 69.905 93.0784 70.0475 93.0356C70.19 92.9929 70.2898 92.9359 70.3468 92.8789C70.5036 92.6651 70.6888 92.209 70.8884 91.696L72.9121 86.5083C72.9264 86.4656 73.2257 85.7957 73.2542 85.7387C73.3397 85.582 73.4822 85.5962 73.525 85.6105C73.582 85.6247 73.639 85.6675 73.6675 85.7245ZM74.2233 89.8005L73.2684 87.2067L72.2708 89.8005H74.2233Z" fill="#2B2B2B"/>
<path d="M33.3492 85.6675C33.3492 85.6675 36.1568 85.6532 36.3848 85.6675C37.2257 85.7102 37.6675 85.9668 37.9098 86.1093C38.152 86.266 38.3516 86.4798 38.5083 86.7649C38.6651 87.0499 38.7506 87.3919 38.7364 87.7625C38.7221 88.1473 38.5511 89.3159 37.4109 89.8432C36.8979 90.0855 36.4418 90.0428 36 89.9145C35.772 89.8432 35.601 89.7292 35.4727 89.601C35.4157 89.5155 35.5012 89.4442 35.544 89.487C35.772 89.5725 35.9715 89.601 36.2565 89.601C36.6413 89.601 36.9834 89.4727 37.2827 89.1592C37.582 88.8599 37.8385 88.3326 37.8385 87.8765C37.8385 87.3207 37.696 86.9929 37.4537 86.6793C37.2114 86.3516 36.6984 86.1378 36.1995 86.1378C35.8575 86.1378 35.5725 86.1663 35.3872 86.2233C35.3444 86.2375 35.3159 86.266 35.3017 86.3088C35.2874 86.3658 35.2732 86.4798 35.2589 86.6651C35.2447 86.8504 35.2447 87.1354 35.2447 87.506V91.6532C35.2447 92.1663 35.2732 92.5938 35.3444 92.7506C35.3872 92.8504 35.5155 92.9359 35.7577 92.9929C36 93.0499 36.2565 93.0927 36.2565 93.0927L36.2851 93.3349H33.3492V93.0927C33.3492 93.0927 33.6057 93.0641 33.8052 93.0214C34.0048 92.9786 34.1188 92.8931 34.1473 92.8219C34.2043 92.7221 34.2328 92.2803 34.2328 91.639V87.2494C34.2328 86.7934 34.2185 86.4086 34.1473 86.2518C34.1188 86.1948 34.0048 86.0665 33.8052 85.981C33.6057 85.8955 33.4489 85.8955 33.3492 85.8955V85.6675Z" fill="#2B2B2B"/>
<path d="M52.4466 87.2351C52.4466 86.7648 52.4181 86.4228 52.3611 86.209C52.3326 86.095 52.2043 86.038 51.962 85.981C51.7197 85.924 51.4489 85.9097 51.4489 85.9097V85.6247H54.1283V85.9097C54.1283 85.9097 53.8575 85.924 53.601 85.981C53.3444 86.038 53.2304 86.1093 53.1877 86.209C53.1307 86.4513 53.0879 86.8076 53.0879 87.2922V93.3777H52.6888L52.4893 93.1069L48 86.7221V91.6817C48 92.1948 48.0143 92.5511 48.057 92.7648C48.114 92.9216 48.228 92.9501 48.4703 93.0214C48.7269 93.0926 48.9691 93.1211 48.9691 93.1211V93.3634H46.2898V93.1211C46.2898 93.1211 46.5748 93.0784 46.8171 93.0214C47.0594 92.9644 47.1734 92.9216 47.2447 92.7648C47.3159 92.5653 47.3302 92.1805 47.3302 91.6532V87.0926C47.3302 86.7078 47.3017 86.4228 47.2447 86.2233C47.2162 86.1663 47.0879 86.1093 46.8456 86.0522C46.6033 85.9952 46.3183 85.981 46.3183 85.981V85.639H48.4276C48.4276 85.639 50.0238 88.0618 52.3611 91.3397C52.3896 91.2114 52.3896 91.0546 52.3896 90.8693V87.2351H52.4466Z" fill="#2B2B2B"/>
<path d="M58.019 87.6912C58.0333 87.0926 58.247 86.5511 58.7174 86.1663C59.1734 85.7815 59.715 85.6247 60.3278 85.6247C60.4988 85.6247 60.8694 85.6532 61.0261 85.6817C61.525 85.7672 62.1093 85.9525 62.1093 85.9525L62.2518 87.6342H61.924C61.924 87.6342 61.867 87.1069 61.4252 86.6081C61.1402 86.2803 60.7554 86.1378 60.2565 86.1093C59.7862 86.095 59.4157 86.2518 59.2304 86.4798C59.0451 86.7078 58.9881 86.9786 58.9881 87.3349C58.9881 87.9762 59.3872 88.304 59.5297 88.418C59.6722 88.5321 59.7862 88.6176 59.8432 88.6603C59.9145 88.7031 60.0428 88.7886 60.2423 88.9169C60.4418 89.0451 60.5701 89.1164 60.6271 89.1449C60.6698 89.1734 60.7981 89.2589 61.0404 89.4014C61.2684 89.5439 61.4394 89.6437 61.525 89.7007C61.6105 89.7577 61.753 89.8575 61.924 90.0142C62.5511 90.5701 62.6651 91.2114 62.6651 91.4109C62.6651 92.038 62.4371 92.5796 61.9525 92.9786C61.4679 93.3777 60.8694 93.5629 60.2138 93.5629C60.0285 93.5629 59.829 93.5487 59.6152 93.5202C59.4014 93.4917 59.2304 93.4632 59.0879 93.4347C58.9454 93.4062 58.7744 93.3634 58.5606 93.3207C58.3468 93.2636 58.1045 93.2209 58.1045 93.2209L57.8337 91.3539H58.1758C58.1758 91.3539 58.2328 91.696 58.5178 92.1805C58.8599 92.7506 59.5012 93.0784 60.2423 93.0784C60.6271 93.0784 60.9691 92.9644 61.2399 92.7221C61.5107 92.4941 61.6532 92.152 61.6532 91.7245C61.6532 91.5677 61.6105 91.0689 61.1687 90.6841C61.0404 90.5843 60.9406 90.5131 60.8694 90.4703C60.7981 90.4275 60.6698 90.342 60.4846 90.2423C60.2993 90.1425 60.171 90.0713 60.0998 90.0285C59.8717 89.9002 59.715 89.8005 59.6295 89.7435C59.544 89.6865 59.4014 89.6009 59.1877 89.4584C58.9739 89.3159 58.8314 89.2019 58.7316 89.0879C58.5891 89.0024 58.0048 88.5321 58.019 87.6912Z" fill="#2B2B2B"/>
<path d="M64.3326 92.7506V86.2091C64.3326 86.1806 64.2043 86.0808 63.9335 85.9953C63.734 85.924 63.4774 85.9098 63.4774 85.9098V85.6675L68.6366 85.6817L68.9501 87.1782H68.6081C68.6081 87.1782 68.4941 86.7221 68.095 86.3943C67.9098 86.2376 67.5962 86.2091 67.2399 86.2091H65.3159V89.1592C65.3159 89.1592 67.0689 89.1592 67.1687 89.1592C67.5677 89.1592 67.6675 89.0452 67.7245 88.9596C67.7957 88.8029 67.8955 88.4466 67.8955 88.4466H68.152V90.5416H67.8955C67.8955 90.5416 67.8812 90.3278 67.753 90.0713C67.6532 89.8575 67.4679 89.772 67.1544 89.772C66.8409 89.772 65.3159 89.772 65.3159 89.772V92.7221L66.8266 92.7364C66.8266 92.7364 68.0238 92.7364 68.2803 92.5939C68.3943 92.5368 68.4941 92.4228 68.6366 92.152C68.7506 91.924 68.9216 91.4252 68.9216 91.4252H69.2922L68.8504 93.3492L63.4774 93.3349V93.0927C63.8622 93.0642 64.1758 92.9074 64.3326 92.7506Z" fill="#2B2B2B"/>
<path d="M80.7506 85.6675C81.62 85.6675 82.1045 85.9668 82.3753 86.1093C82.6318 86.2661 82.8599 86.4798 83.0309 86.7649C83.2019 87.0499 83.2874 87.3777 83.2874 87.7625C83.2874 88.0903 83.1591 88.4323 82.9169 88.7886C82.6746 89.1449 82.247 89.4585 81.8337 89.6437C81.7625 89.6722 81.734 89.715 81.7625 89.7577C82.1473 90.5701 82.5748 91.3539 83.0736 91.8955C83.9287 92.9501 84.4988 93.2067 85.1259 93.4632C85.2542 93.5202 85.2114 93.5915 85.1116 93.5915C84.9406 93.5915 84.7126 93.5772 84.4846 93.5345C83.4584 93.3492 82.6033 92.6794 81.8765 91.6817C81.7482 91.5107 81.6057 91.3112 81.4489 91.0689C81.2922 90.8266 80.7791 90 80.7078 89.9288C80.6366 89.8718 80.6223 89.8147 80.4656 89.772C80.38 89.7577 80.0808 89.7292 79.8812 89.7292C79.8242 89.7292 79.7672 89.7292 79.7387 89.7292C79.7102 89.7292 79.6817 89.7577 79.639 89.7862C79.6105 89.8147 79.5962 89.8575 79.5962 89.9288C79.5962 89.9288 79.6247 92.5226 79.696 92.6794C79.7387 92.7791 79.8812 92.8931 80.1235 92.9501C80.3658 93.0071 80.6366 93.0784 80.6366 93.0784V93.3207H77.6722V93.0784C77.6722 93.0784 77.9572 93.0214 78.1425 92.9644C78.4561 92.8789 78.5558 92.8076 78.5701 92.6508V86.2375C78.5701 86.2375 78.5131 86.0665 78.1568 85.9668C77.9572 85.9098 77.7007 85.8813 77.7007 85.8813V85.639C77.7292 85.6675 80.5226 85.6675 80.7506 85.6675ZM80.5796 86.1663C80.2375 86.1663 80.0808 86.1663 79.9097 86.1948C79.8812 86.209 79.6247 86.209 79.6247 86.6081C79.6247 86.7934 79.6247 88.9311 79.6247 88.9311C79.6247 89.1592 79.9667 89.2732 80.6366 89.2732H80.9216C81.1924 89.2732 81.4774 89.1449 81.7625 88.8599C82.0475 88.5891 82.2043 88.2328 82.2043 87.7767C82.2043 86.6936 81.6627 86.1663 80.5796 86.1663Z" fill="#2B2B2B"/>
<path d="M91.3824 91.2541L90.9976 92.9216C90.9976 92.9216 90.6983 93.0784 90.5131 93.1354C89.9572 93.3207 89.3729 93.4632 88.2613 93.4204C87.2494 93.3777 86.3943 93.0499 85.696 92.3088C84.9834 91.5677 84.6413 90.6841 84.6413 89.6579C84.6413 88.5748 85.0404 87.6342 85.7387 86.8361C86.209 86.3088 87.2066 85.7102 88.4038 85.7102C90 85.7102 90.9549 86.1805 90.9549 86.1805L91.1544 87.6484L90.7696 87.7625C90.7696 87.7625 90.7126 87.5629 90.6841 87.4632C90.6556 87.3634 90.4418 86.7363 89.4014 86.323C89.1164 86.209 88.7886 86.1948 88.4323 86.1948C87.905 86.1948 87.1354 86.5226 86.6081 87.1924C86.0808 87.848 85.8242 88.6318 85.8242 89.4727C85.8242 90.0855 85.924 90.6271 86.1378 91.1401C86.3515 91.6532 86.6081 92.0665 87.0784 92.4085C87.5344 92.7506 88.076 92.9501 88.7173 92.9501C89.4727 92.9501 90 92.7648 90.4133 92.323C90.5131 92.209 90.6556 92.0237 90.7411 91.8385C90.8266 91.6532 91.0404 91.1829 91.0404 91.1829L91.3824 91.2541Z" fill="#2B2B2B"/>
<path d="M98.6366 86.2233V92.7933C98.6508 92.8646 98.7648 92.9788 99.0071 93.0215C99.2066 93.0641 99.4489 93.0928 99.4489 93.0928V93.3349H96.7411V93.0928C96.7411 93.0928 96.9834 93.0641 97.1829 93.0215C97.4394 92.9644 97.5962 92.9216 97.5962 92.7791V89.6723H94.1045V92.7648C94.1045 92.8504 94.2328 92.9501 94.4751 92.9929C94.6746 93.0356 94.9169 93.0641 94.9169 93.0641V93.3065H92.209V93.0641C92.209 93.0641 92.4513 93.0356 92.6508 92.9929C92.9073 92.9359 93.0641 92.8931 93.0641 92.7506V86.1807C93.0641 86.0666 92.9074 85.9952 92.7078 85.9382C92.5083 85.8812 92.266 85.867 92.266 85.867V85.6532H94.9739V85.867C94.9739 85.867 94.6603 85.8955 94.5035 85.924C94.3325 85.9667 94.1188 86.0381 94.1188 86.1807V89.0451H97.5962L97.6104 86.1807C97.6104 86.0666 97.4537 85.9952 97.2399 85.9382C97.0404 85.8812 96.7981 85.867 96.7981 85.867V85.6532H99.5059V85.867C99.5059 85.867 99.1924 85.8955 99.0356 85.924C98.8503 86.0237 98.6366 86.095 98.6366 86.2233Z" fill="#2B2B2B"/>
</svg>
