<svg width="60" height="76" viewBox="0 0 60 76" fill="none" xmlns="http://www.w3.org/2000/svg">
<path d="M11.5 65H0L29.75 35.25L41 46.5L11.5 76V65Z" fill="#AA3424"/>
<path d="M48.5 65H60L30.25 35.25L19 46.5L48.5 76V65Z" fill="#AA3424"/>
<circle cx="30" cy="29" r="29" fill="#8B5421"/>
<circle cx="30" cy="29" r="25" fill="url(#paint0_linear_145_753)"/>
<path d="M31.7422 41.9102H20V16H32.5859C35.7617 16.0469 38.0117 16.9668 39.3359 18.7598C40.1328 19.8613 40.5312 21.1797 40.5312 22.7148C40.5312 24.2969 40.1328 25.5684 39.3359 26.5293C38.8906 27.0684 38.2344 27.5605 37.3672 28.0059C38.6914 28.4863 39.6875 29.248 40.3555 30.291C41.0352 31.334 41.375 32.5996 41.375 34.0879C41.375 35.623 40.9883 37 40.2148 38.2188C39.7227 39.0273 39.1074 39.707 38.3691 40.2578C37.5371 40.8906 36.5527 41.3242 35.416 41.5586C34.291 41.793 33.0664 41.9102 31.7422 41.9102ZM31.6191 30.502H25.168V37.4102H31.5312C32.668 37.4102 33.5527 37.2578 34.1855 36.9531C35.334 36.3906 35.9082 35.3125 35.9082 33.7188C35.9082 32.3711 35.3516 31.4453 34.2383 30.9414C33.6172 30.6602 32.7441 30.5137 31.6191 30.502ZM34.3086 25.5625C35.0117 25.1406 35.3633 24.3848 35.3633 23.2949C35.3633 22.0879 34.8945 21.291 33.957 20.9043C33.1484 20.6348 32.1172 20.5 30.8633 20.5H25.168V26.2129H31.5312C32.668 26.2129 33.5938 25.9961 34.3086 25.5625Z" fill="#563414"/>
<defs>
<linearGradient id="paint0_linear_145_753" x1="30" y1="4" x2="30" y2="54" gradientUnits="userSpaceOnUse">
<stop stop-color="#E28835"/>
<stop offset="1" stop-color="#BA6619" stop-opacity="0"/>
</linearGradient>
</defs>
</svg>
