<svg width="60" height="76" viewBox="0 0 60 76" fill="none" xmlns="http://www.w3.org/2000/svg">
<path d="M11.5 65H0L29.75 35.25L41 46.5L11.5 76V65Z" fill="#AA3424"/>
<path d="M48.5 65H60L30.25 35.25L19 46.5L48.5 76V65Z" fill="#AA3424"/>
<circle cx="30" cy="29" r="29" fill="#CCCCCC"/>
<circle cx="30" cy="29" r="25" fill="url(#paint0_linear_145_746)"/>
<path d="M31.8809 33.5938H26.3789V42.9102H21V17H32.2852C34.8867 17 36.9609 17.668 38.5078 19.0039C40.0547 20.3398 40.8281 22.4082 40.8281 25.209C40.8281 28.2676 40.0547 30.4297 38.5078 31.6953C36.9609 32.9609 34.752 33.5938 31.8809 33.5938ZM34.4121 28.1973C35.1152 27.5762 35.4668 26.5918 35.4668 25.2441C35.4668 23.8965 35.1094 22.9355 34.3945 22.3613C33.6914 21.7871 32.7012 21.5 31.4238 21.5H26.3789V29.1289H31.4238C32.7012 29.1289 33.6973 28.8184 34.4121 28.1973Z" fill="#969393"/>
<defs>
<linearGradient id="paint0_linear_145_746" x1="30" y1="4" x2="30" y2="54" gradientUnits="userSpaceOnUse">
<stop stop-color="#FAF6F6"/>
<stop offset="1" stop-color="#F0F0F0" stop-opacity="0"/>
</linearGradient>
</defs>
</svg>
