<svg width="60" height="76" viewBox="0 0 60 76" fill="none" xmlns="http://www.w3.org/2000/svg">
<path d="M11.5 65H0L29.75 35.25L41 46.5L11.5 76V65Z" fill="#AA3424"/>
<path d="M48.5 65H60L30.25 35.25L19 46.5L48.5 76V65Z" fill="#AA3424"/>
<circle cx="30" cy="29" r="29" fill="#BA922C"/>
<circle cx="30" cy="29" r="25" fill="url(#paint0_linear_145_739)"/>
<path d="M35.1387 40.9453C33.709 41.8242 31.9512 42.2637 29.8652 42.2637C26.4316 42.2637 23.6191 41.0742 21.4277 38.6953C19.1426 36.3047 18 33.0352 18 28.8867C18 24.6914 19.1543 21.3281 21.4629 18.7969C23.7715 16.2656 26.8242 15 30.6211 15C33.9141 15 36.5566 15.8379 38.5488 17.5137C40.5527 19.1777 41.7012 21.2578 41.9941 23.7539H36.668C36.2578 21.9844 35.2559 20.748 33.6621 20.0449C32.7715 19.6582 31.7812 19.4648 30.6914 19.4648C28.6055 19.4648 26.8887 20.2559 25.541 21.8379C24.2051 23.4082 23.5371 25.7754 23.5371 28.9395C23.5371 32.127 24.2637 34.3828 25.7168 35.707C27.1699 37.0312 28.8223 37.6934 30.6738 37.6934C32.4902 37.6934 33.9785 37.1719 35.1387 36.1289C36.2988 35.0742 37.0137 33.6973 37.2832 31.998H31.2891V27.6738H42.082V41.5781H38.4961L37.9512 38.3438C36.9082 39.5742 35.9707 40.4414 35.1387 40.9453Z" fill="#74560B"/>
<defs>
<linearGradient id="paint0_linear_145_739" x1="30" y1="4" x2="30" y2="54" gradientUnits="userSpaceOnUse">
<stop stop-color="#FFD56A"/>
<stop offset="1" stop-color="#EEC251" stop-opacity="0"/>
</linearGradient>
</defs>
</svg>
