<svg width="60" height="76" viewBox="0 0 60 76" fill="none" xmlns="http://www.w3.org/2000/svg">
<path d="M11.5 65H0L29.75 35.25L41 46.5L11.5 76V65Z" fill="#AA3424"/>
<path d="M48.5 65H60L30.25 35.25L19 46.5L48.5 76V65Z" fill="#AA3424"/>
<circle cx="30" cy="29" r="29" fill="#A8A8A8"/>
<circle cx="30" cy="29" r="25" fill="url(#paint0_linear_145_732)"/>
<path d="M29.6523 37.9219C30.9297 37.9219 31.9668 37.7812 32.7637 37.5C34.2754 36.9609 35.0312 35.959 35.0312 34.4941C35.0312 33.6387 34.6562 32.9766 33.9062 32.5078C33.1562 32.0508 31.9785 31.6465 30.373 31.2949L27.6309 30.6797C24.9355 30.0703 23.0723 29.4082 22.041 28.6934C20.2949 27.498 19.4219 25.6289 19.4219 23.0859C19.4219 20.7656 20.2656 18.8379 21.9531 17.3027C23.6406 15.7676 26.1191 15 29.3887 15C32.1191 15 34.4453 15.7266 36.3672 17.1797C38.3008 18.6211 39.3145 20.7188 39.4082 23.4727H34.2051C34.1113 21.9141 33.4316 20.8066 32.166 20.1504C31.3223 19.7168 30.2734 19.5 29.0195 19.5C27.625 19.5 26.5117 19.7812 25.6797 20.3438C24.8477 20.9062 24.4316 21.6914 24.4316 22.6992C24.4316 23.625 24.8418 24.3164 25.6621 24.7734C26.1895 25.0781 27.3145 25.4355 29.0371 25.8457L33.502 26.918C35.459 27.3867 36.9355 28.0137 37.9316 28.7988C39.4785 30.0176 40.252 31.7812 40.252 34.0898C40.252 36.457 39.3438 38.4258 37.5273 39.9961C35.7227 41.5547 33.168 42.334 29.8633 42.334C26.4883 42.334 23.834 41.5664 21.9004 40.0312C19.9668 38.4844 19 36.3633 19 33.668H24.168C24.332 34.8516 24.6543 35.7363 25.1348 36.3223C26.0137 37.3887 27.5195 37.9219 29.6523 37.9219Z" fill="#6A6A6A"/>
<defs>
<linearGradient id="paint0_linear_145_732" x1="30" y1="4" x2="30" y2="54" gradientUnits="userSpaceOnUse">
<stop stop-color="#E8E8E8"/>
<stop offset="1" stop-color="#D9D9D9" stop-opacity="0"/>
</linearGradient>
</defs>
</svg>
